Coordinates
version=1
nRows=12
nColumns=46
inDegrees=yes

Units are S.I. units (second, meters, Newtons, ...)
Angles are in degrees.

endheader
time	pelvis_tilt	pelvis_list	pelvis_rotation	pelvis_tx	pelvis_ty	pelvis_tz	bb_angle	bb_tx	bb_ty	bb_tz	hip_flexion_r	hip_adduction_r	hip_rotation_r	knee_angle_r	knee_angle_r_beta	ankle_angle_r	subtalar_angle_r	mtp_angle_r	crank_angle_r	hip_flexion_l	hip_adduction_l	hip_rotation_l	knee_angle_l	knee_angle_l_beta	ankle_angle_l	subtalar_angle_l	mtp_angle_l	crank_angle_l	lumbar_extension	lumbar_bending	lumbar_rotation	arm_flex_r	arm_add_r	arm_rot_r	elbow_flex_r	pro_sup_r	wrist_flex_r	wrist_dev_r	arm_flex_l	arm_add_l	arm_rot_l	elbow_flex_l	pro_sup_l	wrist_flex_l	wrist_dev_l
      5.00500000	    -17.55927982	     -5.94352698	     12.44305350	      0.36324778	      1.20568861	     -0.22556344	      0.00000000	      0.50000000	      0.00000000	      0.25000000	     46.76235105	      1.81752553	     -2.18641122	     92.28674299	      1.61070752	     -3.05192898	    -11.58958552	      0.00000000	      0.00000000	     33.40556409	     -5.12109380	      6.75863854	     32.32381788	      0.56415705	     -1.19795698	     -1.06791460	      0.00000000	      0.00000000	    -62.24725160	      7.88120541	     -8.19907670	     55.46037724	     -9.14325157	     28.01916085	     65.44970277	     51.26763876	      0.00000000	      0.00000000	     49.14416921	    -24.39994272	     22.07886053	     84.92138553	     56.82581578	      0.00000000	      0.00000000
      5.01000000	    -17.47776912	     -6.76727538	     11.07225454	      0.36401780	      1.20366631	     -0.22538317	      0.00000000	      0.50000000	      0.00000000	      0.25000000	     48.07886753	      2.80113890	     -2.27892719	     93.97988044	      1.64025834	     -1.98057118	    -11.09326685	      0.00000000	      0.00000000	     31.79483851	     -6.66211715	      6.13589735	     30.46032629	      0.53163298	     -1.59856003	     -1.08771664	      0.00000000	      0.00000000	    -61.89487764	      8.09413316	     -7.86411223	     56.67204156	     -8.54736884	     30.77169687	     63.71591037	     51.35401035	      0.00000000	      0.00000000	     47.41350205	    -25.62113063	     20.76541277	     85.66457415	     56.72752518	      0.00000000	      0.00000000
      5.01500000	    -17.54723935	     -7.81441819	      9.61759195	      0.36464561	      1.20141663	     -0.22422769	      0.00000000	      0.50000000	      0.00000000	      0.25000000	     49.61696660	      4.13510922	     -2.48864882	     95.49853020	      1.66676378	     -0.99890066	    -11.01857058	      0.00000000	      0.00000000	     30.25957697	     -8.40071651	      5.63071596	     28.46359337	      0.49678342	     -2.07914379	     -1.44021470	      0.00000000	      0.00000000	    -61.40784836	      8.21261255	     -6.49021867	     56.78348141	     -8.25260957	     31.16601924	     63.37390339	     51.35716019	      0.00000000	      0.00000000	     46.59888581	    -26.18580336	     20.65943642	     85.49804442	     56.67891956	      0.00000000	      0.00000000
      5.02000000	    -17.48282933	     -8.17805450	      8.21197221	      0.36532299	      1.19983463	     -0.22432394	      0.00000000	      0.50000000	      0.00000000	      0.25000000	     51.05109500	      4.50508024	     -2.48989590	     97.20205599	      1.69649592	     -0.34496123	    -11.18071835	      0.00000000	      0.00000000	     28.45965088	     -9.52900791	      4.26132883	     26.68087677	      0.46566915	     -2.60083797	     -1.09557648	      0.00000000	      0.00000000	    -61.14032302	      8.10806716	     -5.66757871	     57.01986375	     -8.04734682	     31.75454373	     63.02234466	     51.37071056	      0.00000000	      0.00000000	     45.90353660	    -26.67761018	     20.61603636	     85.11752967	     56.59198352	      0.00000000	      0.00000000
      5.02500000	    -17.64644231	     -9.07390176	      6.88653106	      0.36566960	      1.19801335	     -0.22367561	      0.00000000	      0.50000000	      0.00000000	      0.25000000	     52.64471956	      5.50401498	     -2.67019759	     98.46553272	      1.71854775	      0.53895062	    -10.46572739	      0.00000000	      0.00000000	     26.95028983	    -11.04914795	      3.28920644	     24.74283321	      0.43184391	     -3.22165133	     -0.64767618	      0.00000000	      0.00000000	    -60.65041996	      8.40026710	     -4.47697202	     57.28700479	     -7.78569066	     32.46040976	     62.58581108	     51.38962961	      0.00000000	      0.00000000	     45.18547485	    -27.24180333	     20.59475635	     84.72791545	     56.52282449	      0.00000000	      0.00000000
      5.03000000	    -17.64212141	     -9.56502799	      5.56985274	      0.36653434	      1.19702532	     -0.22353999	      0.00000000	      0.50000000	      0.00000000	      0.25000000	     53.97491433	      6.10435723	     -2.54208660	     99.67247719	      1.73961290	      1.17083416	     -9.14749144	      0.00000000	      0.00000000	     25.21956351	    -12.24847913	      1.65851930	     23.06680469	      0.40259169	     -3.84979589	      0.12807524	      0.00000000	      0.00000000	    -60.37486133	      8.49941145	     -3.57624163	     57.54298856	     -7.53474433	     33.22457459	     62.11306836	     51.40176900	      0.00000000	      0.00000000	     44.52369728	    -27.72413246	     20.58171386	     84.19496406	     56.41983196	      0.00000000	      0.00000000
      5.03500000	    -17.56515266	     -9.93293564	      4.31319375	      0.36746587	      1.19662285	     -0.22354007	      0.00000000	      0.50000000	      0.00000000	      0.25000000	     55.20078483	      6.49227450	     -2.48225479	    100.79137963	      1.75914143	      1.80131946	     -8.23201881	      0.00000000	      0.00000000	     23.33327626	    -13.28193382	     -0.17137967	     21.36088084	      0.37281770	     -4.44986650	      1.31398829	      0.00000000	      0.00000000	    -60.26976016	      8.57248515	     -2.79436945	     57.99870645	     -7.24751521	     34.15079958	     61.49375561	     51.40807165	      0.00000000	      0.00000000	     44.00095070	    -28.16892986	     20.55206294	     83.55177349	     56.29346301	      0.00000000	      0.00000000
      5.04000000	    -17.55113177	    -10.23961322	      3.42254156	      0.36842764	      1.19646669	     -0.22450934	      0.00000000	      0.50000000	      0.00000000	      0.25000000	     56.42694928	      6.51073414	     -2.55211570	    101.69063460	      1.77483639	      1.82908995	     -7.27131328	      0.00000000	      0.00000000	     21.58940715	    -13.90383680	     -1.23630120	     19.65047658	      0.34296552	     -5.94048508	      2.82769236	      0.00000000	      0.00000000	    -60.13786334	      8.96881277	     -2.10567408	     58.15962020	     -7.03846979	     34.76796156	     61.17332601	     51.42398677	      0.00000000	      0.00000000	     43.49964643	    -28.45532731	     20.61410097	     82.99747740	     56.19941368	      0.00000000	      0.00000000
      5.04500000	    -17.16719999	    -10.42013222	      2.21974367	      0.36996047	      1.19720811	     -0.22463754	      0.00000000	      0.50000000	      0.00000000	      0.25000000	     57.16564261	      6.88558857	     -2.26168100	    102.42686152	      1.78768598	      2.08667992	     -6.09624261	      0.00000000	      0.00000000	     19.25059939	    -14.70121816	     -3.69959332	     17.93693878	      0.31305864	     -6.69863487	      4.56270462	      0.00000000	      0.00000000	    -60.45460933	      8.92838867	     -1.38408641	     58.69323329	     -6.82727558	     35.73266950	     60.53489446	     51.42851412	      0.00000000	      0.00000000	     43.23650103	    -28.70788368	     20.64659870	     82.11002506	     56.04279676	      0.00000000	      0.00000000
      5.05000000	    -17.22165132	    -10.94042690	      1.40495827	      0.37102705	      1.19763300	     -0.22527591	      0.00000000	      0.50000000	      0.00000000	      0.25000000	     58.36065722	      7.05057109	     -2.57445401	    102.92229749	      1.79633296	      1.87447529	     -5.22446992	      0.00000000	      0.00000000	     17.75309995	    -15.57830378	     -5.14344103	     16.60680209	      0.28984337	     -6.98784062	      4.86561782	      0.00000000	      0.00000000	    -60.42160199	      9.47788437	     -0.54375969	     58.91394368	     -6.62438685	     36.02464903	     60.45901868	     51.44983907	      0.00000000	      0.00000000	     42.73143370	    -28.96706983	     20.74764365	     81.60881272	     55.97981212	      0.00000000	      0.00000000
      5.05500000	    -16.38124313	    -10.83490221	      0.33178777	      0.37325925	      1.19986951	     -0.22611834	      0.00000000	      0.50000000	      0.00000000	      0.25000000	     58.24552582	      6.87284210	     -3.11102278	    103.37712616	      1.80427122	      2.29126065	     -7.03581277	      0.00000000	      0.00000000	     14.82535644	    -15.88990425	     -7.95246746	     14.87854501	      0.25967960	     -8.08032953	      7.02307975	      0.00000000	      0.00000000	    -61.30853414	      9.24545672	      0.06240736	     59.34415206	     -6.57227905	     36.84290182	     59.96714856	     51.46940675	      0.00000000	      0.00000000	     42.78713448	    -28.87131379	     20.74616020	     80.51339840	     55.80018865	      0.00000000	      0.00000000
      5.06000000	    -16.15952419	    -10.89473949	     -0.57042625	      0.37461190	      1.20132689	     -0.22674844	      0.00000000	      0.50000000	      0.00000000	      0.25000000	     58.95189122	      6.86212363	     -2.84883761	    103.66896861	      1.80936483	      2.69674628	     -5.39838700	      0.00000000	      0.00000000	     12.99786194	    -16.18315067	     -9.71620721	     13.66054888	      0.23842156	     -9.22170364	      8.40668133	      0.00000000	      0.00000000	    -61.60313379	      9.32013581	      0.74650892	     59.60054218	     -6.61659225	     37.39529446	     59.74801674	     51.50249882	      0.00000000	      0.00000000	     42.74705205	    -28.73108476	     20.92313283	     79.60307670	     55.67926845	      0.00000000	      0.00000000
